<svg xmlns="http://www.w3.org/2000/svg" width="16" height="16" viewBox="0 0 16 16">
  <metadata><?xpacket begin="﻿" id="W5M0MpCehiHzreSzNTczkc9d"?>
<x:xmpmeta xmlns:x="adobe:ns:meta/" x:xmptk="Adobe XMP Core 5.6-c138 79.159824, 2016/09/14-01:09:01        ">
   <rdf:RDF xmlns:rdf="http://www.w3.org/1999/02/22-rdf-syntax-ns#">
      <rdf:Description rdf:about=""/>
   </rdf:RDF>
</x:xmpmeta>
                                                                                                    
                                                                                                    
                                                                                                    
                                                                                                    
                                                                                                    
                                                                                                    
                                                                                                    
                                                                                                    
                                                                                                    
                                                                                                    
                                                                                                    
                                                                                                    
                                                                                                    
                                                                                                    
                                                                                                    
                                                                                                    
                                                                                                    
                                                                                                    
                                                                                                    
                                                                                                    
                           
<?xpacket end="w"?></metadata>
<defs>
    <style>
      .cls-1 {
        fill: #76eaff;
        fill-rule: evenodd;
      }
    </style>
  </defs>
  <path id="starCross" class="cls-1" d="M14,10a19.715,19.715,0,0,1-3.288.8A27.542,27.542,0,0,1,10,14a2,2,0,0,1-4,0,27.77,27.77,0,0,1-.724-3.276A27.766,27.766,0,0,1,2,10,2,2,0,1,1,2,6a27.555,27.555,0,0,1,3.2-.712A19.716,19.716,0,0,1,6,2a2,2,0,1,1,4,0,19.79,19.79,0,0,1,.791,3.209A19.793,19.793,0,0,1,14,6,2,2,0,0,1,14,10Z"/>
</svg>
